<svg width="538" height="538" viewBox="0 0 538 538" fill="none" xmlns="http://www.w3.org/2000/svg">
<g clip-path="url(#clip0_105_456)">
<path d="M538 0H0V538H538V0Z" fill="white"/>
<path d="M69.9257 55.1795H55.1794V69.9257H69.9257V55.1795Z" fill="black"/>
<path d="M84.6719 55.1795H69.9257V69.9257H84.6719V55.1795Z" fill="black"/>
<path d="M99.4182 55.1795H84.6719V69.9257H99.4182V55.1795Z" fill="black"/>
<path d="M114.164 55.1795H99.4182V69.9257H114.164V55.1795Z" fill="black"/>
<path d="M128.911 55.1795H114.164V69.9257H128.911V55.1795Z" fill="black"/>
<path d="M143.657 55.1795H128.911V69.9257H143.657V55.1795Z" fill="black"/>
<path d="M158.403 55.1795H143.657V69.9257H158.403V55.1795Z" fill="black"/>
<path d="M187.896 55.1795H173.149V69.9257H187.896V55.1795Z" fill="black"/>
<path d="M202.642 55.1795H187.896V69.9257H202.642V55.1795Z" fill="black"/>
<path d="M217.388 55.1795H202.642V69.9257H217.388V55.1795Z" fill="black"/>
<path d="M232.134 55.1795H217.388V69.9257H232.134V55.1795Z" fill="black"/>
<path d="M246.881 55.1795H232.134V69.9257H246.881V55.1795Z" fill="black"/>
<path d="M276.373 55.1795H261.627V69.9257H276.373V55.1795Z" fill="black"/>
<path d="M305.866 55.1795H291.119V69.9257H305.866V55.1795Z" fill="black"/>
<path d="M320.612 55.1795H305.866V69.9257H320.612V55.1795Z" fill="black"/>
<path d="M364.851 55.1795H350.104V69.9257H364.851V55.1795Z" fill="black"/>
<path d="M394.343 55.1795H379.597V69.9257H394.343V55.1795Z" fill="black"/>
<path d="M409.089 55.1795H394.343V69.9257H409.089V55.1795Z" fill="black"/>
<path d="M423.836 55.1795H409.089V69.9257H423.836V55.1795Z" fill="black"/>
<path d="M438.582 55.1795H423.836V69.9257H438.582V55.1795Z" fill="black"/>
<path d="M453.328 55.1795H438.582V69.9257H453.328V55.1795Z" fill="black"/>
<path d="M468.074 55.1795H453.328V69.9257H468.074V55.1795Z" fill="black"/>
<path d="M482.82 55.1795H468.074V69.9257H482.82V55.1795Z" fill="black"/>
<path d="M69.9257 69.9257H55.1794V84.672H69.9257V69.9257Z" fill="black"/>
<path d="M158.403 69.9257H143.657V84.672H158.403V69.9257Z" fill="black"/>
<path d="M246.881 69.9257H232.134V84.672H246.881V69.9257Z" fill="black"/>
<path d="M261.627 69.9257H246.881V84.672H261.627V69.9257Z" fill="black"/>
<path d="M291.119 69.9257H276.373V84.672H291.119V69.9257Z" fill="black"/>
<path d="M364.851 69.9257H350.104V84.672H364.851V69.9257Z" fill="black"/>
<path d="M394.343 69.9257H379.597V84.672H394.343V69.9257Z" fill="black"/>
<path d="M482.82 69.9257H468.074V84.672H482.82V69.9257Z" fill="black"/>
<path d="M69.9257 84.672H55.1794V99.4182H69.9257V84.672Z" fill="black"/>
<path d="M99.4182 84.672H84.6719V99.4182H99.4182V84.672Z" fill="black"/>
<path d="M114.164 84.672H99.4182V99.4182H114.164V84.672Z" fill="black"/>
<path d="M128.911 84.672H114.164V99.4182H128.911V84.672Z" fill="black"/>
<path d="M158.403 84.672H143.657V99.4182H158.403V84.672Z" fill="black"/>
<path d="M202.642 84.672H187.896V99.4182H202.642V84.672Z" fill="black"/>
<path d="M276.373 84.672H261.627V99.4182H276.373V84.672Z" fill="black"/>
<path d="M305.866 84.672H291.119V99.4182H305.866V84.672Z" fill="black"/>
<path d="M320.612 84.672H305.866V99.4182H320.612V84.672Z" fill="black"/>
<path d="M335.358 84.672H320.612V99.4182H335.358V84.672Z" fill="black"/>
<path d="M350.104 84.672H335.358V99.4182H350.104V84.672Z" fill="black"/>
<path d="M364.851 84.672H350.104V99.4182H364.851V84.672Z" fill="black"/>
<path d="M394.343 84.672H379.597V99.4182H394.343V84.672Z" fill="black"/>
<path d="M423.836 84.672H409.089V99.4182H423.836V84.672Z" fill="black"/>
<path d="M438.582 84.672H423.836V99.4182H438.582V84.672Z" fill="black"/>
<path d="M453.328 84.672H438.582V99.4182H453.328V84.672Z" fill="black"/>
<path d="M482.82 84.672H468.074V99.4182H482.82V84.672Z" fill="black"/>
<path d="M69.9257 99.4182H55.1794V114.164H69.9257V99.4182Z" fill="black"/>
<path d="M99.4182 99.4182H84.6719V114.164H99.4182V99.4182Z" fill="black"/>
<path d="M114.164 99.4182H99.4182V114.164H114.164V99.4182Z" fill="black"/>
<path d="M128.911 99.4182H114.164V114.164H128.911V99.4182Z" fill="black"/>
<path d="M158.403 99.4182H143.657V114.164H158.403V99.4182Z" fill="black"/>
<path d="M202.642 99.4182H187.896V114.164H202.642V99.4182Z" fill="black"/>
<path d="M217.388 99.4182H202.642V114.164H217.388V99.4182Z" fill="black"/>
<path d="M232.134 99.4182H217.388V114.164H232.134V99.4182Z" fill="black"/>
<path d="M276.373 99.4182H261.627V114.164H276.373V99.4182Z" fill="black"/>
<path d="M305.866 99.4182H291.119V114.164H305.866V99.4182Z" fill="black"/>
<path d="M320.612 99.4182H305.866V114.164H320.612V99.4182Z" fill="black"/>
<path d="M335.358 99.4182H320.612V114.164H335.358V99.4182Z" fill="black"/>
<path d="M364.851 99.4182H350.104V114.164H364.851V99.4182Z" fill="black"/>
<path d="M394.343 99.4182H379.597V114.164H394.343V99.4182Z" fill="black"/>
<path d="M423.836 99.4182H409.089V114.164H423.836V99.4182Z" fill="black"/>
<path d="M438.582 99.4182H423.836V114.164H438.582V99.4182Z" fill="black"/>
<path d="M453.328 99.4182H438.582V114.164H453.328V99.4182Z" fill="black"/>
<path d="M482.82 99.4182H468.074V114.164H482.82V99.4182Z" fill="black"/>
<path d="M69.9257 114.164H55.1794V128.911H69.9257V114.164Z" fill="black"/>
<path d="M99.4182 114.164H84.6719V128.911H99.4182V114.164Z" fill="black"/>
<path d="M114.164 114.164H99.4182V128.911H114.164V114.164Z" fill="black"/>
<path d="M128.911 114.164H114.164V128.911H128.911V114.164Z" fill="black"/>
<path d="M158.403 114.164H143.657V128.911H158.403V114.164Z" fill="black"/>
<path d="M187.896 114.164H173.149V128.911H187.896V114.164Z" fill="black"/>
<path d="M202.642 114.164H187.896V128.911H202.642V114.164Z" fill="black"/>
<path d="M217.388 114.164H202.642V128.911H217.388V114.164Z" fill="black"/>
<path d="M232.134 114.164H217.388V128.911H232.134V114.164Z" fill="black"/>
<path d="M246.881 114.164H232.134V128.911H246.881V114.164Z" fill="black"/>
<path d="M276.373 114.164H261.627V128.911H276.373V114.164Z" fill="black"/>
<path d="M320.612 114.164H305.866V128.911H320.612V114.164Z" fill="black"/>
<path d="M364.851 114.164H350.104V128.911H364.851V114.164Z" fill="black"/>
<path d="M394.343 114.164H379.597V128.911H394.343V114.164Z" fill="black"/>
<path d="M423.836 114.164H409.089V128.911H423.836V114.164Z" fill="black"/>
<path d="M438.582 114.164H423.836V128.911H438.582V114.164Z" fill="black"/>
<path d="M453.328 114.164H438.582V128.911H453.328V114.164Z" fill="black"/>
<path d="M482.82 114.164H468.074V128.911H482.82V114.164Z" fill="black"/>
<path d="M69.9257 128.911H55.1794V143.657H69.9257V128.911Z" fill="black"/>
<path d="M158.403 128.911H143.657V143.657H158.403V128.911Z" fill="black"/>
<path d="M217.388 128.911H202.642V143.657H217.388V128.911Z" fill="black"/>
<path d="M232.134 128.911H217.388V143.657H232.134V128.911Z" fill="black"/>
<path d="M261.627 128.911H246.881V143.657H261.627V128.911Z" fill="black"/>
<path d="M291.119 128.911H276.373V143.657H291.119V128.911Z" fill="black"/>
<path d="M335.358 128.911H320.612V143.657H335.358V128.911Z" fill="black"/>
<path d="M394.343 128.911H379.597V143.657H394.343V128.911Z" fill="black"/>
<path d="M482.82 128.911H468.074V143.657H482.82V128.911Z" fill="black"/>
<path d="M69.9257 143.657H55.1794V158.403H69.9257V143.657Z" fill="black"/>
<path d="M84.6719 143.657H69.9257V158.403H84.6719V143.657Z" fill="black"/>
<path d="M99.4182 143.657H84.6719V158.403H99.4182V143.657Z" fill="black"/>
<path d="M114.164 143.657H99.4182V158.403H114.164V143.657Z" fill="black"/>
<path d="M128.911 143.657H114.164V158.403H128.911V143.657Z" fill="black"/>
<path d="M143.657 143.657H128.911V158.403H143.657V143.657Z" fill="black"/>
<path d="M158.403 143.657H143.657V158.403H158.403V143.657Z" fill="black"/>
<path d="M187.896 143.657H173.149V158.403H187.896V143.657Z" fill="black"/>
<path d="M217.388 143.657H202.642V158.403H217.388V143.657Z" fill="black"/>
<path d="M246.881 143.657H232.134V158.403H246.881V143.657Z" fill="black"/>
<path d="M276.373 143.657H261.627V158.403H276.373V143.657Z" fill="black"/>
<path d="M305.866 143.657H291.119V158.403H305.866V143.657Z" fill="black"/>
<path d="M335.358 143.657H320.612V158.403H335.358V143.657Z" fill="black"/>
<path d="M364.851 143.657H350.104V158.403H364.851V143.657Z" fill="black"/>
<path d="M394.343 143.657H379.597V158.403H394.343V143.657Z" fill="black"/>
<path d="M409.089 143.657H394.343V158.403H409.089V143.657Z" fill="black"/>
<path d="M423.836 143.657H409.089V158.403H423.836V143.657Z" fill="black"/>
<path d="M438.582 143.657H423.836V158.403H438.582V143.657Z" fill="black"/>
<path d="M453.328 143.657H438.582V158.403H453.328V143.657Z" fill="black"/>
<path d="M468.074 143.657H453.328V158.403H468.074V143.657Z" fill="black"/>
<path d="M482.82 143.657H468.074V158.403H482.82V143.657Z" fill="black"/>
<path d="M187.896 158.403H173.149V173.149H187.896V158.403Z" fill="black"/>
<path d="M202.642 158.403H187.896V173.149H202.642V158.403Z" fill="black"/>
<path d="M217.388 158.403H202.642V173.149H217.388V158.403Z" fill="black"/>
<path d="M232.134 158.403H217.388V173.149H232.134V158.403Z" fill="black"/>
<path d="M246.881 158.403H232.134V173.149H246.881V158.403Z" fill="black"/>
<path d="M276.373 158.403H261.627V173.149H276.373V158.403Z" fill="black"/>
<path d="M320.612 158.403H305.866V173.149H320.612V158.403Z" fill="black"/>
<path d="M350.104 158.403H335.358V173.149H350.104V158.403Z" fill="black"/>
<path d="M364.851 158.403H350.104V173.149H364.851V158.403Z" fill="black"/>
<path d="M69.9257 173.149H55.1794V187.896H69.9257V173.149Z" fill="black"/>
<path d="M114.164 173.149H99.4182V187.896H114.164V173.149Z" fill="black"/>
<path d="M128.911 173.149H114.164V187.896H128.911V173.149Z" fill="black"/>
<path d="M143.657 173.149H128.911V187.896H143.657V173.149Z" fill="black"/>
<path d="M158.403 173.149H143.657V187.896H158.403V173.149Z" fill="black"/>
<path d="M173.149 173.149H158.403V187.896H173.149V173.149Z" fill="black"/>
<path d="M187.896 173.149H173.149V187.896H187.896V173.149Z" fill="black"/>
<path d="M217.388 173.149H202.642V187.896H217.388V173.149Z" fill="black"/>
<path d="M232.134 173.149H217.388V187.896H232.134V173.149Z" fill="black"/>
<path d="M261.627 173.149H246.881V187.896H261.627V173.149Z" fill="black"/>
<path d="M276.373 173.149H261.627V187.896H276.373V173.149Z" fill="black"/>
<path d="M305.866 173.149H291.119V187.896H305.866V173.149Z" fill="black"/>
<path d="M379.597 173.149H364.851V187.896H379.597V173.149Z" fill="black"/>
<path d="M394.343 173.149H379.597V187.896H394.343V173.149Z" fill="black"/>
<path d="M423.836 173.149H409.089V187.896H423.836V173.149Z" fill="black"/>
<path d="M482.82 173.149H468.074V187.896H482.82V173.149Z" fill="black"/>
<path d="M69.9257 187.896H55.1794V202.642H69.9257V187.896Z" fill="black"/>
<path d="M84.6719 187.896H69.9257V202.642H84.6719V187.896Z" fill="black"/>
<path d="M114.164 187.896H99.4182V202.642H114.164V187.896Z" fill="black"/>
<path d="M128.911 187.896H114.164V202.642H128.911V187.896Z" fill="black"/>
<path d="M173.149 187.896H158.403V202.642H173.149V187.896Z" fill="black"/>
<path d="M202.642 187.896H187.896V202.642H202.642V187.896Z" fill="black"/>
<path d="M217.388 187.896H202.642V202.642H217.388V187.896Z" fill="black"/>
<path d="M232.134 187.896H217.388V202.642H232.134V187.896Z" fill="black"/>
<path d="M276.373 187.896H261.627V202.642H276.373V187.896Z" fill="black"/>
<path d="M305.866 187.896H291.119V202.642H305.866V187.896Z" fill="black"/>
<path d="M320.612 187.896H305.866V202.642H320.612V187.896Z" fill="black"/>
<path d="M335.358 187.896H320.612V202.642H335.358V187.896Z" fill="black"/>
<path d="M350.104 187.896H335.358V202.642H350.104V187.896Z" fill="black"/>
<path d="M379.597 187.896H364.851V202.642H379.597V187.896Z" fill="black"/>
<path d="M438.582 187.896H423.836V202.642H438.582V187.896Z" fill="black"/>
<path d="M453.328 187.896H438.582V202.642H453.328V187.896Z" fill="black"/>
<path d="M468.074 187.896H453.328V202.642H468.074V187.896Z" fill="black"/>
<path d="M69.9257 202.642H55.1794V217.388H69.9257V202.642Z" fill="black"/>
<path d="M99.4182 202.642H84.6719V217.388H99.4182V202.642Z" fill="black"/>
<path d="M143.657 202.642H128.911V217.388H143.657V202.642Z" fill="black"/>
<path d="M158.403 202.642H143.657V217.388H158.403V202.642Z" fill="black"/>
<path d="M187.896 202.642H173.149V217.388H187.896V202.642Z" fill="black"/>
<path d="M217.388 202.642H202.642V217.388H217.388V202.642Z" fill="black"/>
<path d="M232.134 202.642H217.388V217.388H232.134V202.642Z" fill="black"/>
<path d="M261.627 202.642H246.881V217.388H261.627V202.642Z" fill="black"/>
<path d="M276.373 202.642H261.627V217.388H276.373V202.642Z" fill="black"/>
<path d="M364.851 202.642H350.104V217.388H364.851V202.642Z" fill="black"/>
<path d="M379.597 202.642H364.851V217.388H379.597V202.642Z" fill="black"/>
<path d="M394.343 202.642H379.597V217.388H394.343V202.642Z" fill="black"/>
<path d="M423.836 202.642H409.089V217.388H423.836V202.642Z" fill="black"/>
<path d="M438.582 202.642H423.836V217.388H438.582V202.642Z" fill="black"/>
<path d="M453.328 202.642H438.582V217.388H453.328V202.642Z" fill="black"/>
<path d="M69.9257 217.388H55.1794V232.134H69.9257V217.388Z" fill="black"/>
<path d="M84.6719 217.388H69.9257V232.134H84.6719V217.388Z" fill="black"/>
<path d="M99.4182 217.388H84.6719V232.134H99.4182V217.388Z" fill="black"/>
<path d="M202.642 217.388H187.896V232.134H202.642V217.388Z" fill="black"/>
<path d="M217.388 217.388H202.642V232.134H217.388V217.388Z" fill="black"/>
<path d="M232.134 217.388H217.388V232.134H232.134V217.388Z" fill="black"/>
<path d="M246.881 217.388H232.134V232.134H246.881V217.388Z" fill="black"/>
<path d="M305.866 217.388H291.119V232.134H305.866V217.388Z" fill="black"/>
<path d="M335.358 217.388H320.612V232.134H335.358V217.388Z" fill="black"/>
<path d="M394.343 217.388H379.597V232.134H394.343V217.388Z" fill="black"/>
<path d="M468.074 217.388H453.328V232.134H468.074V217.388Z" fill="black"/>
<path d="M482.82 217.388H468.074V232.134H482.82V217.388Z" fill="black"/>
<path d="M69.9257 232.134H55.1794V246.881H69.9257V232.134Z" fill="black"/>
<path d="M143.657 232.134H128.911V246.881H143.657V232.134Z" fill="black"/>
<path d="M158.403 232.134H143.657V246.881H158.403V232.134Z" fill="black"/>
<path d="M173.149 232.134H158.403V246.881H173.149V232.134Z" fill="black"/>
<path d="M187.896 232.134H173.149V246.881H187.896V232.134Z" fill="black"/>
<path d="M202.642 232.134H187.896V246.881H202.642V232.134Z" fill="black"/>
<path d="M232.134 232.134H217.388V246.881H232.134V232.134Z" fill="black"/>
<path d="M246.881 232.134H232.134V246.881H246.881V232.134Z" fill="black"/>
<path d="M261.627 232.134H246.881V246.881H261.627V232.134Z" fill="black"/>
<path d="M291.119 232.134H276.373V246.881H291.119V232.134Z" fill="black"/>
<path d="M305.866 232.134H291.119V246.881H305.866V232.134Z" fill="black"/>
<path d="M320.612 232.134H305.866V246.881H320.612V232.134Z" fill="black"/>
<path d="M335.358 232.134H320.612V246.881H335.358V232.134Z" fill="black"/>
<path d="M350.104 232.134H335.358V246.881H350.104V232.134Z" fill="black"/>
<path d="M409.089 232.134H394.343V246.881H409.089V232.134Z" fill="black"/>
<path d="M423.836 232.134H409.089V246.881H423.836V232.134Z" fill="black"/>
<path d="M438.582 232.134H423.836V246.881H438.582V232.134Z" fill="black"/>
<path d="M69.9257 246.881H55.1794V261.627H69.9257V246.881Z" fill="black"/>
<path d="M114.164 246.881H99.4182V261.627H114.164V246.881Z" fill="black"/>
<path d="M128.911 246.881H114.164V261.627H128.911V246.881Z" fill="black"/>
<path d="M143.657 246.881H128.911V261.627H143.657V246.881Z" fill="black"/>
<path d="M246.881 246.881H232.134V261.627H246.881V246.881Z" fill="black"/>
<path d="M276.373 246.881H261.627V261.627H276.373V246.881Z" fill="black"/>
<path d="M291.119 246.881H276.373V261.627H291.119V246.881Z" fill="black"/>
<path d="M305.866 246.881H291.119V261.627H305.866V246.881Z" fill="black"/>
<path d="M320.612 246.881H305.866V261.627H320.612V246.881Z" fill="black"/>
<path d="M364.851 246.881H350.104V261.627H364.851V246.881Z" fill="black"/>
<path d="M394.343 246.881H379.597V261.627H394.343V246.881Z" fill="black"/>
<path d="M409.089 246.881H394.343V261.627H409.089V246.881Z" fill="black"/>
<path d="M423.836 246.881H409.089V261.627H423.836V246.881Z" fill="black"/>
<path d="M438.582 246.881H423.836V261.627H438.582V246.881Z" fill="black"/>
<path d="M468.074 246.881H453.328V261.627H468.074V246.881Z" fill="black"/>
<path d="M69.9257 261.627H55.1794V276.373H69.9257V261.627Z" fill="black"/>
<path d="M84.6719 261.627H69.9257V276.373H84.6719V261.627Z" fill="black"/>
<path d="M114.164 261.627H99.4182V276.373H114.164V261.627Z" fill="black"/>
<path d="M128.911 261.627H114.164V276.373H128.911V261.627Z" fill="black"/>
<path d="M158.403 261.627H143.657V276.373H158.403V261.627Z" fill="black"/>
<path d="M173.149 261.627H158.403V276.373H173.149V261.627Z" fill="black"/>
<path d="M202.642 261.627H187.896V276.373H202.642V261.627Z" fill="black"/>
<path d="M246.881 261.627H232.134V276.373H246.881V261.627Z" fill="black"/>
<path d="M261.627 261.627H246.881V276.373H261.627V261.627Z" fill="black"/>
<path d="M276.373 261.627H261.627V276.373H276.373V261.627Z" fill="black"/>
<path d="M320.612 261.627H305.866V276.373H320.612V261.627Z" fill="black"/>
<path d="M350.104 261.627H335.358V276.373H350.104V261.627Z" fill="black"/>
<path d="M364.851 261.627H350.104V276.373H364.851V261.627Z" fill="black"/>
<path d="M394.343 261.627H379.597V276.373H394.343V261.627Z" fill="black"/>
<path d="M438.582 261.627H423.836V276.373H438.582V261.627Z" fill="black"/>
<path d="M453.328 261.627H438.582V276.373H453.328V261.627Z" fill="black"/>
<path d="M69.9257 276.373H55.1794V291.119H69.9257V276.373Z" fill="black"/>
<path d="M128.911 276.373H114.164V291.119H128.911V276.373Z" fill="black"/>
<path d="M202.642 276.373H187.896V291.119H202.642V276.373Z" fill="black"/>
<path d="M217.388 276.373H202.642V291.119H217.388V276.373Z" fill="black"/>
<path d="M232.134 276.373H217.388V291.119H232.134V276.373Z" fill="black"/>
<path d="M261.627 276.373H246.881V291.119H261.627V276.373Z" fill="black"/>
<path d="M276.373 276.373H261.627V291.119H276.373V276.373Z" fill="black"/>
<path d="M291.119 276.373H276.373V291.119H291.119V276.373Z" fill="black"/>
<path d="M320.612 276.373H305.866V291.119H320.612V276.373Z" fill="black"/>
<path d="M335.358 276.373H320.612V291.119H335.358V276.373Z" fill="black"/>
<path d="M350.104 276.373H335.358V291.119H350.104V276.373Z" fill="black"/>
<path d="M364.851 276.373H350.104V291.119H364.851V276.373Z" fill="black"/>
<path d="M379.597 276.373H364.851V291.119H379.597V276.373Z" fill="black"/>
<path d="M394.343 276.373H379.597V291.119H394.343V276.373Z" fill="black"/>
<path d="M409.089 276.373H394.343V291.119H409.089V276.373Z" fill="black"/>
<path d="M438.582 276.373H423.836V291.119H438.582V276.373Z" fill="black"/>
<path d="M453.328 276.373H438.582V291.119H453.328V276.373Z" fill="black"/>
<path d="M482.82 276.373H468.074V291.119H482.82V276.373Z" fill="black"/>
<path d="M69.9257 291.119H55.1794V305.866H69.9257V291.119Z" fill="black"/>
<path d="M84.6719 291.119H69.9257V305.866H84.6719V291.119Z" fill="black"/>
<path d="M114.164 291.119H99.4182V305.866H114.164V291.119Z" fill="black"/>
<path d="M128.911 291.119H114.164V305.866H128.911V291.119Z" fill="black"/>
<path d="M143.657 291.119H128.911V305.866H143.657V291.119Z" fill="black"/>
<path d="M158.403 291.119H143.657V305.866H158.403V291.119Z" fill="black"/>
<path d="M173.149 291.119H158.403V305.866H173.149V291.119Z" fill="black"/>
<path d="M187.896 291.119H173.149V305.866H187.896V291.119Z" fill="black"/>
<path d="M202.642 291.119H187.896V305.866H202.642V291.119Z" fill="black"/>
<path d="M232.134 291.119H217.388V305.866H232.134V291.119Z" fill="black"/>
<path d="M261.627 291.119H246.881V305.866H261.627V291.119Z" fill="black"/>
<path d="M291.119 291.119H276.373V305.866H291.119V291.119Z" fill="black"/>
<path d="M320.612 291.119H305.866V305.866H320.612V291.119Z" fill="black"/>
<path d="M335.358 291.119H320.612V305.866H335.358V291.119Z" fill="black"/>
<path d="M379.597 291.119H364.851V305.866H379.597V291.119Z" fill="black"/>
<path d="M409.089 291.119H394.343V305.866H409.089V291.119Z" fill="black"/>
<path d="M438.582 291.119H423.836V305.866H438.582V291.119Z" fill="black"/>
<path d="M69.9257 305.866H55.1794V320.612H69.9257V305.866Z" fill="black"/>
<path d="M99.4182 305.866H84.6719V320.612H99.4182V305.866Z" fill="black"/>
<path d="M128.911 305.866H114.164V320.612H128.911V305.866Z" fill="black"/>
<path d="M143.657 305.866H128.911V320.612H143.657V305.866Z" fill="black"/>
<path d="M173.149 305.866H158.403V320.612H173.149V305.866Z" fill="black"/>
<path d="M187.896 305.866H173.149V320.612H187.896V305.866Z" fill="black"/>
<path d="M232.134 305.866H217.388V320.612H232.134V305.866Z" fill="black"/>
<path d="M246.881 305.866H232.134V320.612H246.881V305.866Z" fill="black"/>
<path d="M291.119 305.866H276.373V320.612H291.119V305.866Z" fill="black"/>
<path d="M305.866 305.866H291.119V320.612H305.866V305.866Z" fill="black"/>
<path d="M335.358 305.866H320.612V320.612H335.358V305.866Z" fill="black"/>
<path d="M350.104 305.866H335.358V320.612H350.104V305.866Z" fill="black"/>
<path d="M364.851 305.866H350.104V320.612H364.851V305.866Z" fill="black"/>
<path d="M409.089 305.866H394.343V320.612H409.089V305.866Z" fill="black"/>
<path d="M423.836 305.866H409.089V320.612H423.836V305.866Z" fill="black"/>
<path d="M453.328 305.866H438.582V320.612H453.328V305.866Z" fill="black"/>
<path d="M468.074 305.866H453.328V320.612H468.074V305.866Z" fill="black"/>
<path d="M482.82 305.866H468.074V320.612H482.82V305.866Z" fill="black"/>
<path d="M69.9257 320.612H55.1794V335.358H69.9257V320.612Z" fill="black"/>
<path d="M99.4182 320.612H84.6719V335.358H99.4182V320.612Z" fill="black"/>
<path d="M128.911 320.612H114.164V335.358H128.911V320.612Z" fill="black"/>
<path d="M158.403 320.612H143.657V335.358H158.403V320.612Z" fill="black"/>
<path d="M173.149 320.612H158.403V335.358H173.149V320.612Z" fill="black"/>
<path d="M217.388 320.612H202.642V335.358H217.388V320.612Z" fill="black"/>
<path d="M261.627 320.612H246.881V335.358H261.627V320.612Z" fill="black"/>
<path d="M291.119 320.612H276.373V335.358H291.119V320.612Z" fill="black"/>
<path d="M320.612 320.612H305.866V335.358H320.612V320.612Z" fill="black"/>
<path d="M350.104 320.612H335.358V335.358H350.104V320.612Z" fill="black"/>
<path d="M438.582 320.612H423.836V335.358H438.582V320.612Z" fill="black"/>
<path d="M453.328 320.612H438.582V335.358H453.328V320.612Z" fill="black"/>
<path d="M482.82 320.612H468.074V335.358H482.82V320.612Z" fill="black"/>
<path d="M84.6719 335.358H69.9257V350.104H84.6719V335.358Z" fill="black"/>
<path d="M99.4182 335.358H84.6719V350.104H99.4182V335.358Z" fill="black"/>
<path d="M114.164 335.358H99.4182V350.104H114.164V335.358Z" fill="black"/>
<path d="M143.657 335.358H128.911V350.104H143.657V335.358Z" fill="black"/>
<path d="M173.149 335.358H158.403V350.104H173.149V335.358Z" fill="black"/>
<path d="M187.896 335.358H173.149V350.104H187.896V335.358Z" fill="black"/>
<path d="M232.134 335.358H217.388V350.104H232.134V335.358Z" fill="black"/>
<path d="M291.119 335.358H276.373V350.104H291.119V335.358Z" fill="black"/>
<path d="M305.866 335.358H291.119V350.104H305.866V335.358Z" fill="black"/>
<path d="M364.851 335.358H350.104V350.104H364.851V335.358Z" fill="black"/>
<path d="M394.343 335.358H379.597V350.104H394.343V335.358Z" fill="black"/>
<path d="M409.089 335.358H394.343V350.104H409.089V335.358Z" fill="black"/>
<path d="M423.836 335.358H409.089V350.104H423.836V335.358Z" fill="black"/>
<path d="M453.328 335.358H438.582V350.104H453.328V335.358Z" fill="black"/>
<path d="M99.4182 350.104H84.6719V364.851H99.4182V350.104Z" fill="black"/>
<path d="M158.403 350.104H143.657V364.851H158.403V350.104Z" fill="black"/>
<path d="M187.896 350.104H173.149V364.851H187.896V350.104Z" fill="black"/>
<path d="M232.134 350.104H217.388V364.851H232.134V350.104Z" fill="black"/>
<path d="M246.881 350.104H232.134V364.851H246.881V350.104Z" fill="black"/>
<path d="M261.627 350.104H246.881V364.851H261.627V350.104Z" fill="black"/>
<path d="M276.373 350.104H261.627V364.851H276.373V350.104Z" fill="black"/>
<path d="M364.851 350.104H350.104V364.851H364.851V350.104Z" fill="black"/>
<path d="M379.597 350.104H364.851V364.851H379.597V350.104Z" fill="black"/>
<path d="M394.343 350.104H379.597V364.851H394.343V350.104Z" fill="black"/>
<path d="M409.089 350.104H394.343V364.851H409.089V350.104Z" fill="black"/>
<path d="M423.836 350.104H409.089V364.851H423.836V350.104Z" fill="black"/>
<path d="M438.582 350.104H423.836V364.851H438.582V350.104Z" fill="black"/>
<path d="M468.074 350.104H453.328V364.851H468.074V350.104Z" fill="black"/>
<path d="M482.82 350.104H468.074V364.851H482.82V350.104Z" fill="black"/>
<path d="M187.896 364.851H173.149V379.597H187.896V364.851Z" fill="black"/>
<path d="M232.134 364.851H217.388V379.597H232.134V364.851Z" fill="black"/>
<path d="M305.866 364.851H291.119V379.597H305.866V364.851Z" fill="black"/>
<path d="M320.612 364.851H305.866V379.597H320.612V364.851Z" fill="black"/>
<path d="M335.358 364.851H320.612V379.597H335.358V364.851Z" fill="black"/>
<path d="M364.851 364.851H350.104V379.597H364.851V364.851Z" fill="black"/>
<path d="M423.836 364.851H409.089V379.597H423.836V364.851Z" fill="black"/>
<path d="M438.582 364.851H423.836V379.597H438.582V364.851Z" fill="black"/>
<path d="M69.9257 379.597H55.1794V394.343H69.9257V379.597Z" fill="black"/>
<path d="M84.6719 379.597H69.9257V394.343H84.6719V379.597Z" fill="black"/>
<path d="M99.4182 379.597H84.6719V394.343H99.4182V379.597Z" fill="black"/>
<path d="M114.164 379.597H99.4182V394.343H114.164V379.597Z" fill="black"/>
<path d="M128.911 379.597H114.164V394.343H128.911V379.597Z" fill="black"/>
<path d="M143.657 379.597H128.911V394.343H143.657V379.597Z" fill="black"/>
<path d="M158.403 379.597H143.657V394.343H158.403V379.597Z" fill="black"/>
<path d="M187.896 379.597H173.149V394.343H187.896V379.597Z" fill="black"/>
<path d="M202.642 379.597H187.896V394.343H202.642V379.597Z" fill="black"/>
<path d="M232.134 379.597H217.388V394.343H232.134V379.597Z" fill="black"/>
<path d="M261.627 379.597H246.881V394.343H261.627V379.597Z" fill="black"/>
<path d="M291.119 379.597H276.373V394.343H291.119V379.597Z" fill="black"/>
<path d="M320.612 379.597H305.866V394.343H320.612V379.597Z" fill="black"/>
<path d="M335.358 379.597H320.612V394.343H335.358V379.597Z" fill="black"/>
<path d="M364.851 379.597H350.104V394.343H364.851V379.597Z" fill="black"/>
<path d="M394.343 379.597H379.597V394.343H394.343V379.597Z" fill="black"/>
<path d="M423.836 379.597H409.089V394.343H423.836V379.597Z" fill="black"/>
<path d="M468.074 379.597H453.328V394.343H468.074V379.597Z" fill="black"/>
<path d="M69.9257 394.343H55.1794V409.089H69.9257V394.343Z" fill="black"/>
<path d="M158.403 394.343H143.657V409.089H158.403V394.343Z" fill="black"/>
<path d="M187.896 394.343H173.149V409.089H187.896V394.343Z" fill="black"/>
<path d="M202.642 394.343H187.896V409.089H202.642V394.343Z" fill="black"/>
<path d="M232.134 394.343H217.388V409.089H232.134V394.343Z" fill="black"/>
<path d="M261.627 394.343H246.881V409.089H261.627V394.343Z" fill="black"/>
<path d="M320.612 394.343H305.866V409.089H320.612V394.343Z" fill="black"/>
<path d="M335.358 394.343H320.612V409.089H335.358V394.343Z" fill="black"/>
<path d="M364.851 394.343H350.104V409.089H364.851V394.343Z" fill="black"/>
<path d="M423.836 394.343H409.089V409.089H423.836V394.343Z" fill="black"/>
<path d="M69.9257 409.089H55.1794V423.836H69.9257V409.089Z" fill="black"/>
<path d="M99.4182 409.089H84.6719V423.836H99.4182V409.089Z" fill="black"/>
<path d="M114.164 409.089H99.4182V423.836H114.164V409.089Z" fill="black"/>
<path d="M128.911 409.089H114.164V423.836H128.911V409.089Z" fill="black"/>
<path d="M158.403 409.089H143.657V423.836H158.403V409.089Z" fill="black"/>
<path d="M187.896 409.089H173.149V423.836H187.896V409.089Z" fill="black"/>
<path d="M202.642 409.089H187.896V423.836H202.642V409.089Z" fill="black"/>
<path d="M261.627 409.089H246.881V423.836H261.627V409.089Z" fill="black"/>
<path d="M320.612 409.089H305.866V423.836H320.612V409.089Z" fill="black"/>
<path d="M364.851 409.089H350.104V423.836H364.851V409.089Z" fill="black"/>
<path d="M379.597 409.089H364.851V423.836H379.597V409.089Z" fill="black"/>
<path d="M394.343 409.089H379.597V423.836H394.343V409.089Z" fill="black"/>
<path d="M409.089 409.089H394.343V423.836H409.089V409.089Z" fill="black"/>
<path d="M423.836 409.089H409.089V423.836H423.836V409.089Z" fill="black"/>
<path d="M69.9257 423.836H55.1794V438.582H69.9257V423.836Z" fill="black"/>
<path d="M99.4182 423.836H84.6719V438.582H99.4182V423.836Z" fill="black"/>
<path d="M114.164 423.836H99.4182V438.582H114.164V423.836Z" fill="black"/>
<path d="M128.911 423.836H114.164V438.582H128.911V423.836Z" fill="black"/>
<path d="M158.403 423.836H143.657V438.582H158.403V423.836Z" fill="black"/>
<path d="M187.896 423.836H173.149V438.582H187.896V423.836Z" fill="black"/>
<path d="M202.642 423.836H187.896V438.582H202.642V423.836Z" fill="black"/>
<path d="M232.134 423.836H217.388V438.582H232.134V423.836Z" fill="black"/>
<path d="M261.627 423.836H246.881V438.582H261.627V423.836Z" fill="black"/>
<path d="M276.373 423.836H261.627V438.582H276.373V423.836Z" fill="black"/>
<path d="M320.612 423.836H305.866V438.582H320.612V423.836Z" fill="black"/>
<path d="M364.851 423.836H350.104V438.582H364.851V423.836Z" fill="black"/>
<path d="M394.343 423.836H379.597V438.582H394.343V423.836Z" fill="black"/>
<path d="M423.836 423.836H409.089V438.582H423.836V423.836Z" fill="black"/>
<path d="M453.328 423.836H438.582V438.582H453.328V423.836Z" fill="black"/>
<path d="M468.074 423.836H453.328V438.582H468.074V423.836Z" fill="black"/>
<path d="M482.82 423.836H468.074V438.582H482.82V423.836Z" fill="black"/>
<path d="M69.9257 438.582H55.1794V453.328H69.9257V438.582Z" fill="black"/>
<path d="M99.4182 438.582H84.6719V453.328H99.4182V438.582Z" fill="black"/>
<path d="M114.164 438.582H99.4182V453.328H114.164V438.582Z" fill="black"/>
<path d="M128.911 438.582H114.164V453.328H128.911V438.582Z" fill="black"/>
<path d="M158.403 438.582H143.657V453.328H158.403V438.582Z" fill="black"/>
<path d="M202.642 438.582H187.896V453.328H202.642V438.582Z" fill="black"/>
<path d="M261.627 438.582H246.881V453.328H261.627V438.582Z" fill="black"/>
<path d="M276.373 438.582H261.627V453.328H276.373V438.582Z" fill="black"/>
<path d="M335.358 438.582H320.612V453.328H335.358V438.582Z" fill="black"/>
<path d="M394.343 438.582H379.597V453.328H394.343V438.582Z" fill="black"/>
<path d="M453.328 438.582H438.582V453.328H453.328V438.582Z" fill="black"/>
<path d="M69.9257 453.328H55.1794V468.074H69.9257V453.328Z" fill="black"/>
<path d="M158.403 453.328H143.657V468.074H158.403V453.328Z" fill="black"/>
<path d="M202.642 453.328H187.896V468.074H202.642V453.328Z" fill="black"/>
<path d="M232.134 453.328H217.388V468.074H232.134V453.328Z" fill="black"/>
<path d="M246.881 453.328H232.134V468.074H246.881V453.328Z" fill="black"/>
<path d="M261.627 453.328H246.881V468.074H261.627V453.328Z" fill="black"/>
<path d="M291.119 453.328H276.373V468.074H291.119V453.328Z" fill="black"/>
<path d="M305.866 453.328H291.119V468.074H305.866V453.328Z" fill="black"/>
<path d="M320.612 453.328H305.866V468.074H320.612V453.328Z" fill="black"/>
<path d="M350.104 453.328H335.358V468.074H350.104V453.328Z" fill="black"/>
<path d="M423.836 453.328H409.089V468.074H423.836V453.328Z" fill="black"/>
<path d="M453.328 453.328H438.582V468.074H453.328V453.328Z" fill="black"/>
<path d="M468.074 453.328H453.328V468.074H468.074V453.328Z" fill="black"/>
<path d="M482.82 453.328H468.074V468.074H482.82V453.328Z" fill="black"/>
<path d="M69.9257 468.074H55.1794V482.821H69.9257V468.074Z" fill="black"/>
<path d="M84.6719 468.074H69.9257V482.821H84.6719V468.074Z" fill="black"/>
<path d="M99.4182 468.074H84.6719V482.821H99.4182V468.074Z" fill="black"/>
<path d="M114.164 468.074H99.4182V482.821H114.164V468.074Z" fill="black"/>
<path d="M128.911 468.074H114.164V482.821H128.911V468.074Z" fill="black"/>
<path d="M143.657 468.074H128.911V482.821H143.657V468.074Z" fill="black"/>
<path d="M158.403 468.074H143.657V482.821H158.403V468.074Z" fill="black"/>
<path d="M187.896 468.074H173.149V482.821H187.896V468.074Z" fill="black"/>
<path d="M202.642 468.074H187.896V482.821H202.642V468.074Z" fill="black"/>
<path d="M217.388 468.074H202.642V482.821H217.388V468.074Z" fill="black"/>
<path d="M232.134 468.074H217.388V482.821H232.134V468.074Z" fill="black"/>
<path d="M261.627 468.074H246.881V482.821H261.627V468.074Z" fill="black"/>
<path d="M276.373 468.074H261.627V482.821H276.373V468.074Z" fill="black"/>
<path d="M291.119 468.074H276.373V482.821H291.119V468.074Z" fill="black"/>
<path d="M320.612 468.074H305.866V482.821H320.612V468.074Z" fill="black"/>
<path d="M335.358 468.074H320.612V482.821H335.358V468.074Z" fill="black"/>
<path d="M350.104 468.074H335.358V482.821H350.104V468.074Z" fill="black"/>
<path d="M364.851 468.074H350.104V482.821H364.851V468.074Z" fill="black"/>
<path d="M379.597 468.074H364.851V482.821H379.597V468.074Z" fill="black"/>
<path d="M394.343 468.074H379.597V482.821H394.343V468.074Z" fill="black"/>
<path d="M438.582 468.074H423.836V482.821H438.582V468.074Z" fill="black"/>
<path d="M453.328 468.074H438.582V482.821H453.328V468.074Z" fill="black"/>
<path d="M468.074 468.074H453.328V482.821H468.074V468.074Z" fill="black"/>
</g>
<defs>
<clipPath id="clip0_105_456">
<rect width="538" height="538" fill="white"/>
</clipPath>
</defs>
</svg>
