<svg xmlns="http://www.w3.org/2000/svg" viewBox="0 0 3000 2000" width="3000" height="2000"><g transform="translate(260.0 642.5) rotate(28.393019421383485 433.75 433.75) scale(2.5 2.5)"><svg width="347" height="347" viewBox="0 0 347 347"><clipPath id="a"><rect width="347" height="347" fill="#23286B" rx="0" ry="0" stroke="#00054D" stroke-width="0"/></clipPath><rect width="347" height="347" fill="#23286B" rx="0" ry="0" clip-path="url(#a)"/></svg></g><g transform="translate(1835.0 327.5) rotate(0.0 401.25 406.25) scale(3.7225850744053144 3.7173785732586655)"><svg width="215.576" height="218.568" viewBox="0 0 215.576 218.568"><g fill="#caddfd"><path d="M89.113 5.816V1.42c-2.682.432-5.33.976-7.939 1.599v2.797s7.939.003 7.939 0zm18.967 0V.04c-.499-.006-.994-.04-1.493-.04-2.168 0-4.311.079-6.446.204v5.61l7.939.003zm18.969 0V1.952a109.95 109.95 0 0 0-7.939-1.21v5.075s7.939.003 7.939 0zm14.625 0a104.776 104.776 0 0 0-3.597-1.168v1.168zM45.881 25.488v-6.987a107.632 107.632 0 0 0-7.939 5.895v1.095l7.939-.003zm11.025-12.666h7.939v12.667h-7.939zm18.969 0h7.939v12.667h-7.939zm18.97 0h7.939v12.667h-7.939zm18.969 0h7.939v12.667h-7.939zm18.97 0h7.939v12.667h-7.939zm18.969 12.666h7.939V13.843c-.614-.344-1.231-.69-1.855-1.022h-6.087zm24.811 0a112.12 112.12 0 0 0-5.844-4.567v4.567zM32.205 46.057V33.39h-4.038a112.521 112.521 0 0 0-3.901 4.269v8.398zM43.23 33.391h7.939v12.667H43.23zm18.969 0h7.939v12.667h-7.939zm18.973 0h7.939v12.667h-7.939zm18.966 0h7.939v12.667h-7.939zm18.97 0h7.939v12.667h-7.939zm18.969 0h7.939v12.667h-7.939zm18.967 0h7.939v12.667h-7.939zm18.972 0h7.939v12.667h-7.939zm19.49 12.666c-.173-.243-.344-.49-.52-.739v.739zM7.942 62.667a125.316 125.316 0 0 0-1.38 3.059h1.38zm11.031-9.611h7.939v12.667h-7.939zm18.966 0h7.939v12.667h-7.939zm18.967 0h7.939v12.667h-7.939zm18.969 0h7.939v12.667h-7.939zm18.97 0h7.939v12.667h-7.939zm18.969 0h7.939v12.667h-7.939zm18.97 0h7.939v12.667h-7.939zm18.969 0h7.939v12.667h-7.939zm18.967 0h7.939v12.667h-7.939zm18.969 0h7.939v12.667h-7.939zM5.297 73.625h7.939v12.667H5.297zm18.966 0h7.939v12.667h-7.939zm18.967 0h7.939v12.667H43.23zm18.969 0h7.939v12.667h-7.939zm18.973 0h7.939v12.667h-7.939zm18.966 0h7.939v12.667h-7.939zm18.97 0h7.939v12.667h-7.939zm18.969 0h7.939v12.667h-7.939zm18.967 0h7.939v12.667h-7.939zm18.972 0h7.939v12.667h-7.939zm18.967 0h7.939v12.667h-7.939zM0 93.297h7.939v12.667H0zm18.973 0h7.939v12.667h-7.939zm18.966 0h7.939v12.667h-7.939zm18.967 0h7.939v12.667h-7.939zm18.969 0h7.939v12.667h-7.939zm18.97 0h7.939v12.667h-7.939zm18.969 0h7.939v12.667h-7.939zm18.97 0h7.939v12.667h-7.939zm18.969 0h7.939v12.667h-7.939zm18.967 0h7.939v12.667h-7.939zm18.969 0h7.939v12.667h-7.939zm18.97 12.667h6.917c-.131-4.287-.483-8.519-1.095-12.667h-5.822zM5.297 113.866h7.939v12.667H5.297zm18.966 0h7.939v12.667h-7.939zm18.967 0h7.939v12.667H43.23zm18.969 0h7.939v12.667h-7.939zm18.973 0h7.939v12.667h-7.939zm18.966 0h7.939v12.667h-7.939zm18.97 0h7.939v12.667h-7.939zm18.969 0h7.939v12.667h-7.939zm18.967 0h7.939v12.667h-7.939zm18.972 0h7.939v12.667h-7.939zm18.967 0h7.939v12.667h-7.939zm18.972 0v12.667h.353c.654-4.147 1.064-8.38 1.241-12.667h-1.593zM7.942 133.532H.228a108.291 108.291 0 0 0 3.661 12.667h4.053v-12.667zm11.031 0h7.939v12.667h-7.939zm18.966 0h7.939v12.667h-7.939zm18.967 0h7.939v12.667h-7.939zm18.969 0h7.939v12.667h-7.939zm18.97 0h7.939v12.667h-7.939zm18.969 0h7.939v12.667h-7.939zm18.97 0h7.939v12.667h-7.939zm18.969 0h7.939v12.667h-7.939zm18.967 0h7.939v12.667h-7.939zm18.969 0h7.939v12.667h-7.939zm18.97 12.669h.626a109.217 109.217 0 0 0 3.661-12.667h-4.284zM7.084 154.104c1.824 4.068 3.864 8.018 6.151 11.803v-11.803zm17.179-.004h7.939v12.667h-7.939zm18.967 0h7.939v12.667H43.23zm18.969 0h7.939v12.667h-7.939zm18.973 0h7.939v12.667h-7.939zm18.966 0h7.939v12.667h-7.939zm17.646.004h7.939v12.667h-7.939zm20.293-.004h7.939v12.667h-7.939zm18.967 0h7.939v12.667h-7.939zm18.972 0h7.939v12.667h-7.939zm18.967.004v12.667h4.409a110.694 110.694 0 0 0 3.53-6.16v-6.507zm-176.01 19.668v.681a110.206 110.206 0 0 0 7.939 9.514v-10.195zm18.966 0h7.939v12.667h-7.939zm18.967 0h7.939v12.667h-7.939zm18.969 0h7.939v12.667h-7.939zm18.97 0h7.939v12.667h-7.939zm18.969 0h7.939v12.667h-7.939zm18.97 0h7.939v12.667h-7.939zm18.969 0h7.939v12.667h-7.939zm18.967 0h7.939v12.667h-7.939zm18.969 6.34a110.842 110.842 0 0 0 4.996-6.339h-4.996zM43.233 194.341v3.968a109.005 109.005 0 0 0 7.939 5.193v-9.158zm18.966 0h7.939v12.667h-7.939zm18.973 0h7.939v12.667h-7.939zm18.966 0h7.939v12.667h-7.939zm18.97 0h7.939v12.667h-7.939zm18.969 0h7.939v12.667h-7.939zm18.967 0v11.919a106.673 106.673 0 0 0 7.939-4.603v-7.318l-7.939.003zm-81.166 19.666v.234c2.612.766 5.254 1.447 7.939 2.022v-2.256h-7.939zm18.967 0v4.02c2.621.28 5.269.45 7.939.541v-4.564h-7.939zm18.969 0v4.394a107.85 107.85 0 0 0 7.939-.812v-3.585h-7.939zm18.97 1.466c1.8-.444 3.576-.93 5.339-1.462h-5.339z"/></g></svg></g><g transform="translate(1040.0 595.0) rotate(0.0 422.5 422.5) scale(5.597101430075975 5.597101430075975)"><svg width="150.971" height="150.971" viewBox="0 0 150.971 150.971"><circle cx="75.485" cy="75.485" fill="#fff" r="51.985"/><path d="M75.485 150.971C33.863 150.971 0 117.108 0 75.485S33.863 0 75.485 0s75.485 33.863 75.485 75.485-33.863 75.485-75.485 75.485zm0-103.971C59.778 47 47 59.778 47 75.485s12.778 28.485 28.485 28.485 28.485-12.778 28.485-28.485S91.192 47 75.485 47z" fill="#e94a47"/></svg></g><g transform="translate(1605.0 927.5) rotate(82.15071674137629 378.75 378.75) scale(2.5 2.5)"><svg width="303" height="303" viewBox="0 0 303 303"><clipPath id="b"><rect width="303" height="303" fill="#BFD6FD" rx="0" ry="0" stroke="#0051DE" stroke-width="0"/></clipPath><rect width="303" height="303" fill="#BFD6FD" rx="0" ry="0" clip-path="url(#b)"/></svg></g><g transform="translate(1677.5 522.5) rotate(0.0 272.5 423.75) scale(5.5059959791075235 5.443684362655362)"><svg width="98.983" height="155.685" viewBox="0 0 98.983 155.685"><path d="M66.569 0v85.903H40.82V17.821H0v98.626h66.569v39.238h32.414V0z" fill="#428dfc"/></svg></g><g transform="translate(380.0 595.0) rotate(0.0 315.0 436.25) scale(5.545823466755869 5.604265022320711)"><svg width="113.599" height="155.685" viewBox="0 0 113.599 155.685"><path d="M81.185 0 0 81.185l12.802 12.802 68.383-68.383v60.299H29.197v30.544h51.988v39.238h32.414V0z" fill="#428dfc"/></svg></g><g transform="translate(755.0 132.5) rotate(0.0 1110.0 747.5) scale(5.556473291384463 5.556835837316662)"><svg width="399.534" height="269.038" viewBox="0 0 399.534 269.038"><path style="fill:#23286b" d="m50.386 38.629-6.067-15.413 15.406-6.105 6.065 15.412-15.404 6.106z"/><path style="fill:#d9e021" d="m337.859 203.981-12.43-10.947 10.922-12.46 12.43 10.948-10.922 12.459z"/><path style="fill:#89b3f4" d="m75.596 269.038-12.43-10.949 10.922-12.459 12.43 10.949-10.922 12.459z"/><path style="fill:#d9e021" d="m0 52.294 3.01-10.915 10.893 2.994-3.009 10.914L0 52.294z"/><path d="M86.319 81.966a.997.997 0 0 1-.486-.552c-4.747-13.197-18.361-22.595-32.372-22.345a1 1 0 0 1-1.02-.987 1.008 1.008 0 0 1 .989-1.024c14.845-.262 29.267 9.696 34.296 23.67a1.006 1.006 0 0 1-1.407 1.236Z" style="fill:#e94a47"/><path d="M93.59 46.423a1.001 1.001 0 0 1-.544-.946c.817-16.513-6.618-33.256-19.406-43.689a1.006 1.006 0 0 1-.143-1.414 1 1 0 0 1 1.414-.146c13.272 10.827 20.991 28.205 20.14 45.347a1.01 1.01 0 0 1-1.054.958 1 1 0 0 1-.406-.109Zm264.63 95.948c3.591-.247 16.089-1.913 26.17-13.003 10.637-11.702 14.542-26.851 12.667-32.557a1.005 1.005 0 0 1 1.911-.624c2.305 6.985-2.503 22.892-13.085 34.533-10.583 11.644-23.74 13.394-27.52 13.654a1.007 1.007 0 0 1-1.063-1.157c.07-.453.448-.812.921-.847Z" style="fill:#78a9ef"/><path d="M311.681 209.347a.998.998 0 0 1 .418-.532 1.008 1.008 0 0 1 1.388.319c7.898 12.545 21.335 21.58 35.942 24.174.548.097.913.618.814 1.165a1.02 1.02 0 0 1-1.166.812c-15.16-2.69-29.1-12.067-37.297-25.082a1.015 1.015 0 0 1-.099-.856Z" style="fill:#e94a47"/></svg></g><g transform="translate(167.5 945.0) rotate(0.0 90.0 90.0) scale(2.5 2.5)"><svg width="72" height="72" viewBox="0 0 72 72"><clipPath id="c"><circle cx="36" cy="36" fill="#E94A47" r="36"/></clipPath><circle cx="36" cy="36" fill="#E94A47" clip-path="url(#c)" r="36"/></svg></g><g transform="translate(-1662.5 392.5) rotate(34.39386866750112 1110.0 747.5) translate(1742.5 412.5) scale(5.556473291384463 5.556835837316662)"><svg width="85.936" height="88.18" viewBox="313.598 74.233 85.936 88.18"><path style="fill:#23286b" d="m50.386 38.629-6.067-15.413 15.406-6.105 6.065 15.412-15.404 6.106z"/><path style="fill:#d9e021" d="m337.859 203.981-12.43-10.947 10.922-12.46 12.43 10.948-10.922 12.459z"/><path style="fill:#89b3f4" d="m75.596 269.038-12.43-10.949 10.922-12.459 12.43 10.949-10.922 12.459z"/><path style="fill:#d9e021" d="m0 52.294 3.01-10.915 10.893 2.994-3.009 10.914L0 52.294z"/><path d="M86.319 81.966a.997.997 0 0 1-.486-.552c-4.747-13.197-18.361-22.595-32.372-22.345a1 1 0 0 1-1.02-.987 1.008 1.008 0 0 1 .989-1.024c14.845-.262 29.267 9.696 34.296 23.67a1.006 1.006 0 0 1-1.407 1.236Z" style="fill:#e94a47"/><path d="M93.59 46.423a1.001 1.001 0 0 1-.544-.946c.817-16.513-6.618-33.256-19.406-43.689a1.006 1.006 0 0 1-.143-1.414 1 1 0 0 1 1.414-.146c13.272 10.827 20.991 28.205 20.14 45.347a1.01 1.01 0 0 1-1.054.958 1 1 0 0 1-.406-.109Zm264.63 95.948c3.591-.247 16.089-1.913 26.17-13.003 10.637-11.702 14.542-26.851 12.667-32.557a1.005 1.005 0 0 1 1.911-.624c2.305 6.985-2.503 22.892-13.085 34.533-10.583 11.644-23.74 13.394-27.52 13.654a1.007 1.007 0 0 1-1.063-1.157c.07-.453.448-.812.921-.847Z" style="fill:#78a9ef"/><path d="M311.681 209.347a.998.998 0 0 1 .418-.532 1.008 1.008 0 0 1 1.388.319c7.898 12.545 21.335 21.58 35.942 24.174.548.097.913.618.814 1.165a1.02 1.02 0 0 1-1.166.812c-15.16-2.69-29.1-12.067-37.297-25.082a1.015 1.015 0 0 1-.099-.856Z" style="fill:#e94a47"/></svg></g></svg>