<svg width="29" height="29" viewBox="0 0 29 29" fill="none" xmlns="http://www.w3.org/2000/svg">
<path d="M14.3139 0C6.4086 0 0 6.4086 0 14.3139C0 21.0265 4.62166 26.6593 10.8562 28.2063V18.6882H7.90468V14.3139H10.8562V12.429C10.8562 7.55714 13.0611 5.29899 17.8442 5.29899C18.7512 5.29899 20.3159 5.47705 20.9561 5.65455V9.61948C20.6183 9.58399 20.0314 9.56624 19.3025 9.56624C16.9556 9.56624 16.0487 10.4554 16.0487 12.7668V14.3139H20.7242L19.9209 18.6882H16.0487V28.5229C23.1363 27.667 28.6283 21.6322 28.6283 14.3139C28.6277 6.4086 22.2191 0 14.3139 0Z" fill="white"/>
</svg>
