<svg width="26" height="27" viewBox="0 0 26 27" fill="none" xmlns="http://www.w3.org/2000/svg">
<mask id="mask0_6_271" style="mask-type:alpha" maskUnits="userSpaceOnUse" x="0" y="0" width="26" height="27">
<rect x="0.304321" y="0.978271" width="25.0435" height="25.0435" fill="#D9D9D9"/>
</mask>
<g mask="url(#mask0_6_271)">
<path d="M13.3478 13.4478C13.8521 12.8913 14.2391 12.2565 14.5087 11.5435C14.7782 10.8304 14.913 10.0913 14.913 9.32607C14.913 8.56086 14.7782 7.82173 14.5087 7.10868C14.2391 6.39564 13.8521 5.76086 13.3478 5.20433C14.3913 5.34347 15.2608 5.80433 15.9565 6.58694C16.6521 7.36955 17 8.2826 17 9.32607C17 10.3696 16.6521 11.2826 15.9565 12.0652C15.2608 12.8478 14.3913 13.3087 13.3478 13.4478ZM19.0869 21.8478V18.7174C19.0869 18.0913 18.9478 17.4956 18.6695 16.9304C18.3913 16.3652 18.0261 15.8652 17.5739 15.4304C18.4608 15.7435 19.2826 16.1478 20.0391 16.6435C20.7956 17.1391 21.1739 17.8304 21.1739 18.7174V21.8478H19.0869ZM21.1739 14.5435V12.4565H19.0869V10.3696H21.1739V8.2826H23.2608V10.3696H25.3478V12.4565H23.2608V14.5435H21.1739ZM8.65215 13.5C7.50432 13.5 6.52171 13.0913 5.70432 12.2739C4.88693 11.4565 4.47823 10.4739 4.47823 9.32607C4.47823 8.17825 4.88693 7.19564 5.70432 6.37825C6.52171 5.56086 7.50432 5.15216 8.65215 5.15216C9.79997 5.15216 10.7826 5.56086 11.6 6.37825C12.4174 7.19564 12.8261 8.17825 12.8261 9.32607C12.8261 10.4739 12.4174 11.4565 11.6 12.2739C10.7826 13.0913 9.79997 13.5 8.65215 13.5ZM0.304321 21.8478V18.9261C0.304321 18.3348 0.456495 17.7913 0.760843 17.2956C1.06519 16.8 1.46954 16.4217 1.97389 16.1609C3.05215 15.6217 4.1478 15.2174 5.26084 14.9478C6.37389 14.6782 7.50432 14.5435 8.65215 14.5435C9.79997 14.5435 10.9304 14.6782 12.0435 14.9478C13.1565 15.2174 14.2521 15.6217 15.3304 16.1609C15.8348 16.4217 16.2391 16.8 16.5435 17.2956C16.8478 17.7913 17 18.3348 17 18.9261V21.8478H0.304321ZM8.65215 11.413C9.22606 11.413 9.71737 11.2087 10.1261 10.8C10.5348 10.3913 10.7391 9.89999 10.7391 9.32607C10.7391 8.75216 10.5348 8.26086 10.1261 7.85216C9.71737 7.44346 9.22606 7.23912 8.65215 7.23912C8.07823 7.23912 7.58693 7.44346 7.17823 7.85216C6.76954 8.26086 6.56519 8.75216 6.56519 9.32607C6.56519 9.89999 6.76954 10.3913 7.17823 10.8C7.58693 11.2087 8.07823 11.413 8.65215 11.413ZM2.39128 19.7609H14.913V18.9261C14.913 18.7348 14.8652 18.5609 14.7695 18.4043C14.6739 18.2478 14.5478 18.1261 14.3913 18.0391C13.4521 17.5696 12.5043 17.2174 11.5478 16.9826C10.5913 16.7478 9.62606 16.6304 8.65215 16.6304C7.67823 16.6304 6.71302 16.7478 5.75649 16.9826C4.79997 17.2174 3.85215 17.5696 2.91302 18.0391C2.7565 18.1261 2.63041 18.2478 2.53476 18.4043C2.4391 18.5609 2.39128 18.7348 2.39128 18.9261V19.7609Z" fill="#07529E"/>
</g>
</svg>
