<svg width="29" height="29" viewBox="0 0 29 29" fill="none" xmlns="http://www.w3.org/2000/svg">
<path d="M14.3139 2.57761C18.1383 2.57761 18.5912 2.59439 20.0953 2.66148C21.4931 2.72299 22.248 2.95782 22.7512 3.15352C23.4166 3.41072 23.8974 3.72384 24.3951 4.22147C24.8983 4.72469 25.2058 5.19996 25.463 5.86533C25.6587 6.36855 25.8935 7.12897 25.955 8.52122C26.0221 10.0309 26.0389 10.4838 26.0389 14.3027C26.0389 18.1272 26.0221 18.5801 25.955 20.0841C25.8935 21.482 25.6587 22.2368 25.463 22.74C25.2058 23.4054 24.8927 23.8862 24.3951 24.3839C23.8918 24.8871 23.4166 25.1946 22.7512 25.4518C22.248 25.6475 21.4876 25.8824 20.0953 25.9439C18.5856 26.011 18.1327 26.0277 14.3139 26.0277C10.4894 26.0277 10.0365 26.011 8.5324 25.9439C7.13456 25.8824 6.37973 25.6475 5.87651 25.4518C5.21114 25.1946 4.73028 24.8815 4.23265 24.3839C3.72943 23.8807 3.42191 23.4054 3.1647 22.74C2.96901 22.2368 2.73417 21.4764 2.67267 20.0841C2.60557 18.5745 2.5888 18.1216 2.5888 14.3027C2.5888 10.4782 2.60557 10.0253 2.67267 8.52122C2.73417 7.12338 2.96901 6.36855 3.1647 5.86533C3.42191 5.19996 3.73502 4.7191 4.23265 4.22147C4.73587 3.71825 5.21114 3.41072 5.87651 3.15352C6.37973 2.95782 7.14015 2.72299 8.5324 2.66148C10.0365 2.59439 10.4894 2.57761 14.3139 2.57761ZM14.3139 0C10.4279 0 9.94142 0.016774 8.41498 0.0838703C6.89413 0.150966 5.84855 0.396986 4.94275 0.749241C3.99782 1.11827 3.19825 1.60472 2.40428 2.40428C1.60472 3.19825 1.11827 3.99782 0.749241 4.93716C0.396986 5.84855 0.150966 6.88854 0.0838703 8.40939C0.0167741 9.94142 0 10.4279 0 14.3139C0 18.1998 0.0167741 18.6863 0.0838703 20.2127C0.150966 21.7336 0.396986 22.7792 0.749241 23.685C1.11827 24.6299 1.60472 25.4295 2.40428 26.2234C3.19825 27.0174 3.99782 27.5094 4.93716 27.8729C5.84855 28.2251 6.88854 28.4712 8.40939 28.5382C9.93583 28.6053 10.4223 28.6221 14.3083 28.6221C18.1943 28.6221 18.6807 28.6053 20.2071 28.5382C21.728 28.4712 22.7736 28.2251 23.6794 27.8729C24.6187 27.5094 25.4183 27.0174 26.2122 26.2234C27.0062 25.4295 27.4983 24.6299 27.8617 23.6906C28.214 22.7792 28.46 21.7392 28.5271 20.2183C28.5942 18.6919 28.6109 18.2054 28.6109 14.3194C28.6109 10.4335 28.5942 9.94701 28.5271 8.42057C28.46 6.89973 28.214 5.85414 27.8617 4.94835C27.5094 3.99782 27.023 3.19825 26.2234 2.40428C25.4295 1.61031 24.6299 1.11827 23.6905 0.754832C22.7792 0.402577 21.7392 0.156558 20.2183 0.0894616C18.6863 0.0167741 18.1998 0 14.3139 0Z" fill="white"/>
<path d="M23.6738 6.67037C23.6738 7.6209 22.9022 8.38692 21.9573 8.38692C21.0067 8.38692 20.2407 7.61531 20.2407 6.67037C20.2407 5.71984 21.0123 4.95383 21.9573 4.95383C22.9022 4.95383 23.6738 5.72543 23.6738 6.67037Z" fill="white"/>
<path d="M14.3141 6.96121C10.2547 6.96121 6.96143 10.2545 6.96143 14.3138C6.96143 18.3732 10.2547 21.6665 14.3141 21.6665C18.3734 21.6665 21.6667 18.3732 21.6667 14.3138C21.6667 10.2545 18.3734 6.96121 14.3141 6.96121ZM14.3141 19.0833C11.6805 19.0833 9.54463 16.9474 9.54463 14.3138C9.54463 11.6803 11.6805 9.54442 14.3141 9.54442C16.9476 9.54442 19.0835 11.6803 19.0835 14.3138C19.0835 16.9474 16.9476 19.0833 14.3141 19.0833Z" fill="white"/>
</svg>
