<svg width="29" height="29" viewBox="0 0 29 29" fill="none" xmlns="http://www.w3.org/2000/svg">
<path d="M26.5086 0H2.11353C0.944938 0 0 0.922573 0 2.06321V26.5589C0 27.6995 0.944938 28.6277 2.11353 28.6277H26.5086C27.6772 28.6277 28.6277 27.6995 28.6277 26.5645V2.06321C28.6277 0.922573 27.6772 0 26.5086 0ZM8.49326 24.3951H4.24383V10.7298H8.49326V24.3951ZM6.36855 8.86788C5.00426 8.86788 3.90276 7.76638 3.90276 6.40769C3.90276 5.04899 5.00426 3.94749 6.36855 3.94749C7.72725 3.94749 8.82874 5.04899 8.82874 6.40769C8.82874 7.76079 7.72725 8.86788 6.36855 8.86788ZM24.3951 24.3951H20.1512V17.7525C20.1512 16.1702 20.1233 14.1293 17.9426 14.1293C15.7341 14.1293 15.3986 15.8571 15.3986 17.6407V24.3951H11.1603V10.7298H15.2308V12.5973H15.2867C15.8515 11.5238 17.2381 10.3887 19.3013 10.3887C23.6011 10.3887 24.3951 13.218 24.3951 16.8971V24.3951Z" fill="white"/>
</svg>
