<svg width="20" height="21" viewBox="0 0 20 21" fill="none" xmlns="http://www.w3.org/2000/svg">
<circle cx="11" cy="12" r="9" fill="#00529D"/>
<mask id="mask0_62_4" style="mask-type:alpha" maskUnits="userSpaceOnUse" x="0" y="0" width="19" height="19">
<rect width="19" height="19" fill="#D9D9D9"/>
</mask>
<g mask="url(#mask0_62_4)">
<path d="M9.50004 17.4167C8.10143 17.4167 6.96011 17.1957 6.07608 16.7536C5.19205 16.3116 4.75004 15.741 4.75004 15.0417C4.75004 14.725 4.8457 14.4314 5.03702 14.1609C5.22834 13.8905 5.49553 13.6562 5.83858 13.4583L7.08546 14.626C6.96671 14.6788 6.83806 14.7382 6.69952 14.8042C6.56098 14.8701 6.45212 14.9493 6.37296 15.0417C6.54449 15.2528 6.94032 15.4375 7.56046 15.5958C8.1806 15.7542 8.82712 15.8333 9.50004 15.8333C10.173 15.8333 10.8228 15.7542 11.4495 15.5958C12.0763 15.4375 12.4754 15.2528 12.6469 15.0417C12.5546 14.9361 12.4358 14.8503 12.2907 14.7844C12.1455 14.7184 12.007 14.659 11.875 14.6063L13.1021 13.4187C13.4716 13.6299 13.7552 13.8707 13.9532 14.1411C14.1511 14.4116 14.25 14.7118 14.25 15.0417C14.25 15.741 13.808 16.3116 12.924 16.7536C12.04 17.1957 10.8987 17.4167 9.50004 17.4167ZM9.51983 13.0625C10.8261 12.0993 11.8091 11.1328 12.4688 10.163C13.1285 9.19323 13.4584 8.22014 13.4584 7.24375C13.4584 5.89792 13.0296 4.88194 12.1719 4.19583C11.3143 3.50972 10.4237 3.16667 9.50004 3.16667C8.57643 3.16667 7.6858 3.50972 6.82817 4.19583C5.97053 4.88194 5.54171 5.89792 5.54171 7.24375C5.54171 8.12778 5.86497 9.04809 6.5115 10.0047C7.15803 10.9613 8.1608 11.9806 9.51983 13.0625ZM9.50004 15.0417C7.63962 13.6694 6.25091 12.3368 5.33389 11.0437C4.41688 9.75069 3.95837 8.48403 3.95837 7.24375C3.95837 6.30694 4.1266 5.48559 4.46306 4.77969C4.79952 4.07379 5.23164 3.48333 5.75942 3.00833C6.28719 2.53333 6.88094 2.17708 7.54067 1.93958C8.20039 1.70208 8.85351 1.58333 9.50004 1.58333C10.1466 1.58333 10.7997 1.70208 11.4594 1.93958C12.1191 2.17708 12.7129 2.53333 13.2407 3.00833C13.7684 3.48333 14.2006 4.07379 14.537 4.77969C14.8735 5.48559 15.0417 6.30694 15.0417 7.24375C15.0417 8.48403 14.5832 9.75069 13.6662 11.0437C12.7492 12.3368 11.3605 13.6694 9.50004 15.0417ZM9.50004 8.70833C9.93546 8.70833 10.3082 8.5533 10.6183 8.24323C10.9283 7.93316 11.0834 7.56042 11.0834 7.125C11.0834 6.68958 10.9283 6.31684 10.6183 6.00677C10.3082 5.6967 9.93546 5.54167 9.50004 5.54167C9.06462 5.54167 8.69188 5.6967 8.38181 6.00677C8.07174 6.31684 7.91671 6.68958 7.91671 7.125C7.91671 7.56042 8.07174 7.93316 8.38181 8.24323C8.69188 8.5533 9.06462 8.70833 9.50004 8.70833Z" fill="white"/>
</g>
</svg>
