<svg width="21" height="20" viewBox="0 0 21 20" fill="none" xmlns="http://www.w3.org/2000/svg">
<circle cx="12" cy="11" r="9" fill="#00529D"/>
<mask id="mask0_62_3" style="mask-type:alpha" maskUnits="userSpaceOnUse" x="0" y="0" width="20" height="20">
<rect width="19.2676" height="19.2676" fill="#D9D9D9"/>
</mask>
<g mask="url(#mask0_62_3)">
<path d="M3.21122 16.0563C2.76968 16.0563 2.39168 15.8991 2.07725 15.5847C1.76281 15.2702 1.60559 14.8923 1.60559 14.4507V4.8169C1.60559 4.37535 1.76281 3.99736 2.07725 3.68292C2.39168 3.36848 2.76968 3.21127 3.21122 3.21127H16.0563C16.4978 3.21127 16.8758 3.36848 17.1903 3.68292C17.5047 3.99736 17.6619 4.37535 17.6619 4.8169V14.4507C17.6619 14.8923 17.5047 15.2702 17.1903 15.5847C16.8758 15.8991 16.4978 16.0563 16.0563 16.0563H3.21122ZM9.63376 10.4366L3.21122 6.42253V14.4507H16.0563V6.42253L9.63376 10.4366ZM9.63376 8.83098L16.0563 4.8169H3.21122L9.63376 8.83098ZM3.21122 6.42253V4.8169V14.4507V6.42253Z" fill="white"/>
</g>
</svg>
