<svg width="18" height="18" viewBox="0 0 18 18" fill="none" xmlns="http://www.w3.org/2000/svg">
<circle cx="9" cy="9" r="9" fill="#00529D"/>
<path d="M14.6077 14.4507C12.9352 14.4507 11.2827 14.0861 9.65035 13.3569C8.01796 12.6276 6.53275 11.594 5.19472 10.256C3.85669 8.91796 2.82306 7.43275 2.09384 5.80035C1.36461 4.16796 1 2.51549 1 0.842958C1 0.602113 1.08028 0.401408 1.24085 0.240845C1.40141 0.0802817 1.60211 0 1.84296 0H5.09437C5.28169 0 5.44894 0.0635563 5.59613 0.190669C5.74331 0.317782 5.83028 0.46831 5.85704 0.642254L6.37887 3.45211C6.40563 3.6662 6.39894 3.84683 6.3588 3.99401C6.31866 4.1412 6.24507 4.26831 6.13803 4.37535L4.1912 6.34225C4.4588 6.83732 4.77658 7.31567 5.14454 7.77729C5.5125 8.23891 5.91725 8.6838 6.3588 9.11197C6.77359 9.52676 7.20845 9.91144 7.66338 10.266C8.11831 10.6206 8.6 10.9451 9.10845 11.2394L10.9951 9.35282C11.1155 9.2324 11.2727 9.14208 11.4667 9.08187C11.6607 9.02166 11.8514 9.00493 12.0387 9.03169L14.8085 9.59366C14.9958 9.64718 15.1496 9.74419 15.2701 9.88468C15.3905 10.0252 15.4507 10.1824 15.4507 10.3563V13.6077C15.4507 13.8486 15.3704 14.0493 15.2099 14.2099C15.0493 14.3704 14.8486 14.4507 14.6077 14.4507ZM3.42852 4.8169L4.75317 3.49225L4.41197 1.60563H2.6257C2.69261 2.15423 2.78627 2.69613 2.90669 3.23134C3.02711 3.76655 3.20106 4.29507 3.42852 4.8169ZM10.6137 12.0021C11.1356 12.2296 11.6674 12.4102 12.2093 12.544C12.7512 12.6778 13.2965 12.7648 13.8451 12.8049V11.0387L11.9585 10.6574L10.6137 12.0021Z" fill="white"/>
</svg>
