<svg width="21" height="20" viewBox="0 0 21 20" fill="none" xmlns="http://www.w3.org/2000/svg">
<circle cx="12" cy="11" r="9" fill="#00529D"/>
<mask id="mask0_62_5" style="mask-type:alpha" maskUnits="userSpaceOnUse" x="0" y="0" width="20" height="20">
<rect width="19.2676" height="19.2676" fill="#D9D9D9"/>
</mask>
<g mask="url(#mask0_62_5)">
<path d="M9.63376 17.662C8.53658 17.662 7.4996 17.4512 6.52284 17.0298C5.54608 16.6083 4.69309 16.0329 3.96387 15.3037C3.23464 14.5745 2.65929 13.7215 2.23781 12.7447C1.81633 11.768 1.60559 10.731 1.60559 9.6338C1.60559 8.52324 1.81633 7.48292 2.23781 6.51285C2.65929 5.54278 3.23464 4.69313 3.96387 3.96391C4.69309 3.23468 5.54608 2.65933 6.52284 2.23785C7.4996 1.81637 8.53658 1.60563 9.63376 1.60563C10.7443 1.60563 11.7846 1.81637 12.7547 2.23785C13.7248 2.65933 14.5744 3.23468 15.3037 3.96391C16.0329 4.69313 16.6082 5.54278 17.0297 6.51285C17.4512 7.48292 17.6619 8.52324 17.6619 9.6338C17.6619 10.731 17.4512 11.768 17.0297 12.7447C16.6082 13.7215 16.0329 14.5745 15.3037 15.3037C14.5744 16.0329 13.7248 16.6083 12.7547 17.0298C11.7846 17.4512 10.7443 17.662 9.63376 17.662ZM9.63376 16.0162C9.98165 15.5345 10.2827 15.0327 10.5369 14.5109C10.7912 13.9891 10.9985 13.4338 11.1591 12.8451H8.10841C8.26897 13.4338 8.47637 13.9891 8.73059 14.5109C8.98482 15.0327 9.28587 15.5345 9.63376 16.0162ZM7.54644 15.6951C7.30559 15.2535 7.09485 14.7952 6.91422 14.3202C6.73358 13.8452 6.58306 13.3535 6.46263 12.8451H4.09432C4.48235 13.5141 4.96739 14.0961 5.54943 14.5912C6.13147 15.0863 6.79714 15.4542 7.54644 15.6951ZM11.7211 15.6951C12.4704 15.4542 13.136 15.0863 13.7181 14.5912C14.3001 14.0961 14.7852 13.5141 15.1732 12.8451H12.8049C12.6845 13.3535 12.5339 13.8452 12.3533 14.3202C12.1727 14.7952 11.9619 15.2535 11.7211 15.6951ZM3.41193 11.2394H6.14151C6.10137 10.9718 6.07126 10.7076 6.05119 10.4467C6.03112 10.1857 6.02108 9.91479 6.02108 9.6338C6.02108 9.35282 6.03112 9.08186 6.05119 8.82095C6.07126 8.56003 6.10137 8.29577 6.14151 8.02817H3.41193C3.34503 8.29577 3.29485 8.56003 3.2614 8.82095C3.22795 9.08186 3.21122 9.35282 3.21122 9.6338C3.21122 9.91479 3.22795 10.1857 3.2614 10.4467C3.29485 10.7076 3.34503 10.9718 3.41193 11.2394ZM7.74714 11.2394H11.5204C11.5605 10.9718 11.5906 10.7076 11.6107 10.4467C11.6308 10.1857 11.6408 9.91479 11.6408 9.6338C11.6408 9.35282 11.6308 9.08186 11.6107 8.82095C11.5906 8.56003 11.5605 8.29577 11.5204 8.02817H7.74714C7.707 8.29577 7.67689 8.56003 7.65682 8.82095C7.63675 9.08186 7.62672 9.35282 7.62672 9.6338C7.62672 9.91479 7.63675 10.1857 7.65682 10.4467C7.67689 10.7076 7.707 10.9718 7.74714 11.2394ZM13.126 11.2394H15.8556C15.9225 10.9718 15.9727 10.7076 16.0061 10.4467C16.0396 10.1857 16.0563 9.91479 16.0563 9.6338C16.0563 9.35282 16.0396 9.08186 16.0061 8.82095C15.9727 8.56003 15.9225 8.29577 15.8556 8.02817H13.126C13.1662 8.29577 13.1963 8.56003 13.2163 8.82095C13.2364 9.08186 13.2464 9.35282 13.2464 9.6338C13.2464 9.91479 13.2364 10.1857 13.2163 10.4467C13.1963 10.7076 13.1662 10.9718 13.126 11.2394ZM12.8049 6.42253H15.1732C14.7852 5.75352 14.3001 5.17148 13.7181 4.67641C13.136 4.18134 12.4704 3.81338 11.7211 3.57253C11.9619 4.01408 12.1727 4.47236 12.3533 4.94736C12.5339 5.42236 12.6845 5.91408 12.8049 6.42253ZM8.10841 6.42253H11.1591C10.9985 5.8338 10.7912 5.27852 10.5369 4.75669C10.2827 4.23486 9.98165 3.7331 9.63376 3.25141C9.28587 3.7331 8.98482 4.23486 8.73059 4.75669C8.47637 5.27852 8.26897 5.8338 8.10841 6.42253ZM4.09432 6.42253H6.46263C6.58306 5.91408 6.73358 5.42236 6.91422 4.94736C7.09485 4.47236 7.30559 4.01408 7.54644 3.57253C6.79714 3.81338 6.13147 4.18134 5.54943 4.67641C4.96739 5.17148 4.48235 5.75352 4.09432 6.42253Z" fill="white"/>
</g>
</svg>
